<svg width="247" height="61" viewBox="0 0 247 61" fill="none" xmlns="http://www.w3.org/2000/svg">
<path d="M2.75397 37.0966C2.75392 37.0965 2.75384 37.0964 3.59787 36.6149C4.4229 36.1442 4.44151 36.1337 4.4419 36.1334L4.45896 36.1633C4.47108 36.1843 4.48963 36.2159 4.51378 36.2572C4.56209 36.3398 4.6335 36.4608 4.72461 36.612C4.90703 36.9147 5.16747 37.3368 5.47801 37.8128C6.1063 38.7759 6.91278 39.9169 7.68052 40.7418C9.28227 42.4629 11.8724 44.5466 13.1753 45.2787C14.568 46.0613 15.5592 46.6137 17.5269 47.2539C19.4304 47.8733 21.1904 48.2557 22.997 48.4559C23.846 48.55 25.0314 48.5177 26.047 48.4543C26.5459 48.4231 26.9883 48.3856 27.3056 48.3559C27.464 48.341 27.591 48.3282 27.6776 48.3191C27.7209 48.3146 27.754 48.3109 27.7761 48.3085C27.7871 48.3073 27.7954 48.3063 27.8007 48.3057C27.8033 48.3054 27.8052 48.3054 27.8064 48.3052L27.8079 48.305L27.8081 48.3049C27.8091 48.3048 27.811 48.3047 27.8134 48.3044C27.8184 48.3038 27.8265 48.3028 27.837 48.3015C27.8582 48.299 27.8903 48.295 27.9321 48.2897C28.0159 48.2792 28.139 48.2633 28.293 48.2418C28.6016 48.1986 29.0326 48.1335 29.5211 48.0466C30.514 47.8697 31.6839 47.6121 32.5476 47.2817C32.7973 47.1862 33.2726 46.9931 33.6958 46.8196C33.9053 46.7337 34.0987 46.6541 34.2396 46.5958C34.31 46.5668 34.3674 46.543 34.407 46.5266C34.4267 46.5184 34.4421 46.5121 34.4525 46.5078C34.4577 46.5056 34.4617 46.504 34.4644 46.5029C34.4657 46.5023 34.4668 46.502 34.4675 46.5017C34.4678 46.5016 34.4683 46.5013 34.4684 46.5012L35.2133 48.2962L35.2131 48.2963C35.2129 48.2964 35.2126 48.2964 35.2123 48.2965C35.2116 48.2968 35.2105 48.2974 35.2091 48.298L35.1505 48.3223C35.1104 48.339 35.0525 48.3629 34.9816 48.3922C34.8396 48.4509 34.6447 48.5312 34.4333 48.6179C34.0147 48.7895 33.5168 48.9917 33.2417 49.097C32.1994 49.4956 30.8809 49.7785 29.8619 49.96C29.3445 50.0521 28.8888 50.1209 28.562 50.1665C28.3984 50.1894 28.2666 50.2066 28.1751 50.2181C28.1292 50.2239 28.0933 50.2282 28.0685 50.2311C28.0562 50.2326 28.0467 50.2339 28.0399 50.2346C28.0366 50.235 28.0339 50.2352 28.032 50.2354C28.0311 50.2355 28.0303 50.2357 28.0297 50.2358L28.0291 50.2358L28.0287 50.2357L28.0285 50.2359L28.0279 50.2359L28.0276 50.236L28.0246 50.2362C28.0228 50.2364 28.0201 50.2369 28.0168 50.2372C28.0101 50.238 28.0004 50.2389 27.9879 50.2403C27.9629 50.243 27.9265 50.247 27.88 50.2519C27.787 50.2617 27.6529 50.2753 27.4867 50.2908C27.1546 50.322 26.6918 50.3613 26.1684 50.394C25.1393 50.4582 23.8107 50.5016 22.7831 50.3877C20.8365 50.172 18.9468 49.7597 16.9256 49.1021C14.7756 48.4026 13.6533 47.7764 12.2234 46.9729C10.7037 46.1189 7.95934 43.8943 6.25779 42.066C5.37391 41.1163 4.4947 39.8628 3.85027 38.875C3.52449 38.3756 3.25174 37.9332 3.06013 37.6152C2.96423 37.4561 2.88837 37.3277 2.83619 37.2385C2.81014 37.194 2.79011 37.1591 2.77624 37.1351C2.7693 37.1231 2.76374 37.1137 2.76002 37.1072L2.75397 37.0966Z" fill="#FF9797"/>
<path d="M2.41152 34.2551C3.74337 33.4954 5.43897 33.9591 6.19875 35.291C6.95853 36.6228 6.49478 38.3184 5.16293 39.0782C3.83109 39.838 2.13549 39.3742 1.37571 38.0424C0.615925 36.7105 1.07968 35.0149 2.41152 34.2551Z" fill="#FF9797"/>
<path d="M2.54909 34.4963C1.35043 35.1801 0.933055 36.7061 1.61686 37.9048C2.30066 39.1035 3.8267 39.5208 5.02536 38.837C6.22402 38.1532 6.6414 36.6272 5.9576 35.4285L6.19875 35.291C6.95853 36.6228 6.49478 38.3184 5.16293 39.0782C3.83109 39.838 2.13549 39.3742 1.37571 38.0424C0.615925 36.7105 1.07968 35.0149 2.41152 34.2551C3.74337 33.4954 5.43897 33.9591 6.19875 35.291L5.9576 35.4285C5.27379 34.2299 3.74775 33.8125 2.54909 34.4963Z" fill="#FF9797"/>
<path d="M44.7308 40.382C44.7308 40.3821 44.7307 40.3823 43.9 39.8781C43.088 39.3854 43.0697 39.3742 43.0693 39.374L43.0871 39.3446C43.0996 39.3238 43.1182 39.2922 43.1426 39.2511C43.1913 39.1687 43.2625 39.0476 43.3504 38.8945C43.5265 38.5881 43.7691 38.1554 44.0345 37.6529C44.5714 36.636 45.1774 35.377 45.5258 34.3053C46.2528 32.0694 46.8169 28.7934 46.8244 27.2989C46.8324 25.7014 46.8342 24.5667 46.4386 22.5356C46.0559 20.5708 45.5357 18.8465 44.8336 17.1699C44.5037 16.382 43.9 15.3613 43.3515 14.5042C43.0821 14.0833 42.8345 13.7146 42.6544 13.4517C42.5645 13.3204 42.4917 13.2157 42.4417 13.1443C42.4167 13.1087 42.3974 13.0815 42.3845 13.0634C42.3781 13.0543 42.3732 13.0476 42.3701 13.0432C42.3686 13.0411 42.3677 13.0394 42.367 13.0385L42.3661 13.0373L42.3659 13.0372C42.3653 13.0363 42.3643 13.0348 42.3628 13.0328C42.3599 13.0287 42.3551 13.0221 42.3489 13.0135C42.3364 12.9962 42.3173 12.9701 42.2924 12.9361C42.2425 12.868 42.1689 12.7681 42.0753 12.6439C41.8878 12.3951 41.6216 12.0498 41.3084 11.665C40.6717 10.8828 39.8785 9.98515 39.1703 9.39043C38.9657 9.21856 38.5661 8.89678 38.2089 8.61099C38.0322 8.46957 37.8686 8.33915 37.7493 8.24423C37.6897 8.1968 37.641 8.15819 37.6074 8.1315C37.5907 8.11824 37.5778 8.10786 37.569 8.10085C37.5646 8.09738 37.5612 8.09464 37.5589 8.09285C37.5578 8.09197 37.557 8.09114 37.5564 8.0907C37.5561 8.09048 37.5556 8.09024 37.5555 8.09014L38.7631 6.56743L38.7633 6.56757C38.7634 6.56769 38.7636 6.56801 38.7638 6.56822C38.7644 6.5687 38.7655 6.56936 38.7667 6.57029L38.8164 6.60964C38.8504 6.63665 38.8994 6.67563 38.9595 6.72344C39.0797 6.81909 39.2446 6.95043 39.423 7.0932C39.7762 7.37582 40.1948 7.7129 40.4203 7.90235C41.2749 8.62001 42.1624 9.63539 42.8157 10.4381C43.1475 10.8457 43.4288 11.2107 43.6274 11.4742C43.7268 11.6061 43.8058 11.713 43.8603 11.7875C43.8876 11.8247 43.9088 11.8541 43.9234 11.8743C43.9307 11.8843 43.9364 11.8921 43.9404 11.8976C43.9423 11.9003 43.9438 11.9026 43.9449 11.9042C43.9455 11.9049 43.946 11.9055 43.9464 11.906L43.9467 11.9065L43.9468 11.9069L43.947 11.907L43.9474 11.9075L43.9476 11.9077L43.9492 11.9102C43.9503 11.9118 43.952 11.9138 43.9539 11.9166C43.9578 11.9221 43.9633 11.9301 43.9706 11.9403C43.9851 11.9608 44.0063 11.9907 44.0331 12.029C44.0868 12.1056 44.1638 12.2162 44.2581 12.3539C44.4466 12.6292 44.7056 13.0147 44.9883 13.4564C45.5441 14.3249 46.227 15.4653 46.6264 16.419C47.3828 18.2255 47.9399 20.0777 48.3462 22.164C48.7785 24.3832 48.776 25.6684 48.7677 27.3086C48.759 29.0518 48.1464 32.5311 47.3742 34.9062C46.973 36.14 46.304 37.5172 45.7533 38.5602C45.4749 39.0875 45.2205 39.5407 45.0356 39.8626C44.943 40.0237 44.8676 40.1523 44.815 40.2412C44.7887 40.2856 44.7679 40.3201 44.7537 40.3439C44.7465 40.3558 44.741 40.3652 44.7372 40.3716L44.7308 40.382Z" fill="#FF9797"/>
<path d="M42.413 42.0609C41.1021 41.2654 40.6844 39.5579 41.4798 38.2471C42.2753 36.9363 43.9828 36.5185 45.2937 37.314C46.6045 38.1095 47.0223 39.817 46.2268 41.1278C45.4313 42.4386 43.7238 42.8564 42.413 42.0609Z" fill="#FF9797"/>
<path d="M42.557 41.8236C43.7368 42.5395 45.2735 42.1635 45.9895 40.9838C46.7054 39.804 46.3294 38.2673 45.1496 37.5513C43.9699 36.8354 42.4331 37.2114 41.7172 38.3911L41.4798 38.2471C42.2753 36.9363 43.9828 36.5185 45.2937 37.314C46.6045 38.1095 47.0223 39.817 46.2268 41.1278C45.4313 42.4386 43.7238 42.8564 42.413 42.0609C41.1021 41.2654 40.6844 39.5579 41.4798 38.2471L41.7172 38.3911C41.0013 39.5709 41.3773 41.1076 42.557 41.8236Z" fill="#FF9797"/>
<path d="M26.2456 1.68832C26.2456 1.68832 26.2459 1.68832 26.2451 2.66003C26.2442 3.60987 26.2442 3.63175 26.2442 3.63175L26.2098 3.63172C26.1856 3.63182 26.1489 3.63223 26.1011 3.63271C26.0054 3.63367 25.8649 3.6356 25.6884 3.63967C25.3351 3.64782 24.8394 3.66444 24.272 3.69781C23.1241 3.76534 21.7332 3.89922 20.6361 4.15636C18.347 4.69286 15.2526 5.90747 13.9704 6.67527C12.5998 7.496 11.6283 8.08234 10.096 9.47289C8.61366 10.8181 7.40824 12.1563 6.33784 13.6254C5.83485 14.3158 5.27458 15.361 4.82563 16.2741C4.6051 16.7226 4.41808 17.1254 4.28645 17.4156C4.22072 17.5605 4.16888 17.6771 4.13378 17.7568C4.11625 17.7966 4.10296 17.8273 4.09411 17.8476C4.08968 17.8578 4.08646 17.8655 4.08433 17.8704C4.0833 17.8728 4.08236 17.8744 4.08189 17.8755L4.08134 17.8769C4.08093 17.8779 4.08014 17.8798 4.07917 17.882C4.07719 17.8867 4.07408 17.8942 4.06993 17.904C4.06164 17.9236 4.04915 17.9534 4.03298 17.9923C4.00057 18.0703 3.95325 18.1851 3.8955 18.3295C3.77982 18.6188 3.62241 19.0253 3.45553 19.4925C3.1163 20.4423 2.7594 21.5859 2.61757 22.4997C2.57658 22.7638 2.50835 23.2723 2.44894 23.7258C2.41954 23.9503 2.39272 24.1577 2.37333 24.3089C2.36364 24.3845 2.35582 24.4461 2.3504 24.4887C2.34771 24.5098 2.34554 24.5263 2.34412 24.5375C2.34342 24.543 2.34284 24.5474 2.34248 24.5502C2.3423 24.5516 2.34203 24.5528 2.34194 24.5535L2.34194 24.5546L0.413901 24.3105L0.414173 24.3094C0.41427 24.3086 0.41426 24.3074 0.414447 24.3059L0.422365 24.243C0.42785 24.1999 0.435803 24.1378 0.445569 24.0616C0.465108 23.9092 0.492046 23.7002 0.521726 23.4736C0.580482 23.0251 0.651988 22.4925 0.697171 22.2014C0.868338 21.0987 1.27707 19.8135 1.62519 18.8389C1.80196 18.3439 1.96845 17.9142 2.09097 17.6078C2.1523 17.4545 2.2028 17.3315 2.23824 17.2463C2.25595 17.2036 2.2701 17.1703 2.27981 17.1473C2.28463 17.1359 2.2883 17.127 2.29094 17.1208C2.29227 17.1177 2.29345 17.1152 2.2942 17.1135C2.29457 17.1126 2.2948 17.1118 2.29502 17.1113L2.29529 17.1108L2.29556 17.1105L2.29583 17.1097L2.29719 17.1067C2.29793 17.105 2.29885 17.1025 2.30018 17.0994C2.30286 17.0932 2.30686 17.0843 2.31186 17.0728C2.32189 17.0498 2.33648 17.0161 2.35533 16.9733C2.39302 16.8878 2.44773 16.7646 2.51669 16.6126C2.65451 16.3088 2.85003 15.8875 3.08141 15.4169C3.53634 14.4916 4.15802 13.3166 4.76685 12.481C5.92016 10.8981 7.2159 9.4621 8.7899 8.0337C10.4642 6.5143 11.5648 5.85069 12.9719 5.00806C14.4675 4.11249 17.7609 2.83398 20.1925 2.26406C21.4557 1.96801 22.9803 1.8268 24.1576 1.75753C24.7529 1.72252 25.2723 1.70531 25.6435 1.69674C25.8292 1.69245 25.9783 1.6903 26.0816 1.68926C26.1332 1.68874 26.1734 1.68867 26.2012 1.68855C26.2151 1.68849 26.226 1.68832 26.2334 1.68831L26.2456 1.68832Z" fill="#FF9797"/>
<path d="M28.8825 2.80115C28.8811 4.33447 27.637 5.57639 26.1037 5.57505C24.5704 5.57371 23.3285 4.32962 23.3298 2.7963C23.3311 1.26298 24.5752 0.0210585 26.1086 0.0223966C27.6419 0.0237346 28.8838 1.26782 28.8825 2.80115Z" fill="#FF9797"/>
<path d="M28.6048 2.8009C28.606 1.42091 27.4883 0.301234 26.1083 0.300029C24.7283 0.298825 23.6086 1.41655 23.6074 2.79654C23.6062 4.17653 24.724 5.29621 26.104 5.29742L26.1037 5.57505C24.5704 5.57371 23.3285 4.32962 23.3298 2.7963C23.3311 1.26298 24.5752 0.0210585 26.1086 0.0223966C27.6419 0.0237346 28.8838 1.26782 28.8825 2.80115C28.8811 4.33447 27.637 5.57639 26.1037 5.57505L26.104 5.29742C27.4839 5.29862 28.6036 4.1809 28.6048 2.8009Z" fill="#FF9797"/>
<path d="M17.0074 28.3476C17.9671 28.3476 18.745 29.1255 18.745 30.0852C18.745 31.0448 17.9671 31.8228 17.0074 31.8228C16.0478 31.8228 15.2698 31.0448 15.2698 30.0852C15.2698 29.1255 16.0478 28.3476 17.0074 28.3476ZM17.0074 28.9794C16.3967 28.9794 15.9017 29.4745 15.9017 30.0852C15.9017 30.6959 16.3967 31.1909 17.0074 31.1909C17.6181 31.1909 18.1132 30.6959 18.1132 30.0852C18.1132 29.4745 17.6181 28.9794 17.0074 28.9794Z" fill="#FF9797"/>
<path d="M20.6724 27.5285C20.8243 27.4426 21.017 27.4962 21.1029 27.6481L21.1312 27.698C21.217 27.8499 21.1635 28.0427 21.0116 28.1285L18.4612 29.5703L18.122 28.9703L20.6724 27.5285Z" fill="#FF9797"/>
<path d="M21.4941 22.9335C21.6292 23.0439 21.6493 23.2429 21.539 23.378L21.4915 23.4362C21.3811 23.5713 21.1821 23.5914 21.0469 23.4811L19.6301 22.3242L20.0772 21.7767L21.4941 22.9335Z" fill="#FF9797"/>
<path d="M18.2711 18.8695C19.4052 18.8695 20.3246 19.7889 20.3246 20.923C20.3246 22.0571 19.4052 22.9765 18.2711 22.9765C17.137 22.9765 16.2176 22.0571 16.2176 20.923C16.2176 19.7889 17.137 18.8695 18.2711 18.8695ZM18.2711 19.5013C17.4859 19.5013 16.8494 20.1378 16.8494 20.923C16.8494 21.7082 17.4859 22.3447 18.2711 22.3447C19.0563 22.3447 19.6928 21.7082 19.6928 20.923C19.6928 20.1378 19.0563 19.5013 18.2711 19.5013Z" fill="#FF9797"/>
<path d="M27.1975 22.7327C27.0899 22.8701 26.8913 22.8942 26.7539 22.7866L26.6839 22.7317C26.5466 22.6241 26.5225 22.4255 26.6301 22.2882L27.9489 20.6051L28.5163 21.0497L27.1975 22.7327Z" fill="#FF9797"/>
<path d="M29.6445 16.658C30.9531 16.658 32.0139 17.7188 32.0139 19.0274C32.0139 20.336 30.9531 21.3969 29.6445 21.3969C28.3359 21.3969 27.275 20.336 27.275 19.0274C27.275 17.7188 28.3359 16.658 29.6445 16.658ZM29.6445 17.2898C28.6848 17.2898 27.9069 18.0678 27.9069 19.0274C27.9069 19.9871 28.6848 20.765 29.6445 20.765C30.6041 20.765 31.3821 19.9871 31.3821 19.0274C31.3821 18.0678 30.6041 17.2898 29.6445 17.2898Z" fill="#FF9797"/>
<path d="M27.0758 28.981C26.9511 28.859 26.949 28.6589 27.0711 28.5343L27.1333 28.4708C27.2553 28.3461 27.4554 28.344 27.58 28.4661L30.2046 31.0362L29.7004 31.5512L27.0758 28.981Z" fill="#FF9797"/>
<path d="M31.2241 30.2428C32.5327 30.2428 33.5936 31.3037 33.5936 32.6123C33.5936 33.9209 32.5327 34.9817 31.2241 34.9817C29.9155 34.9817 28.8547 33.9209 28.8547 32.6123C28.8547 31.3037 29.9155 30.2428 31.2241 30.2428ZM31.2241 30.8747C30.2645 30.8747 29.4865 31.6526 29.4865 32.6123C29.4865 33.5719 30.2645 34.3499 31.2241 34.3499C32.1838 34.3499 32.9617 33.5719 32.9617 32.6123C32.9617 31.6526 32.1838 30.8747 31.2241 30.8747Z" fill="#FF9797"/>
<path d="M24.4317 22.6606C26.1765 22.6606 27.591 24.075 27.591 25.8199C27.591 27.5647 26.1765 28.9791 24.4317 28.9791C22.6869 28.9791 21.2724 27.5647 21.2724 25.8199C21.2724 24.075 22.6869 22.6606 24.4317 22.6606ZM24.4317 23.2924C23.0358 23.2924 21.9043 24.424 21.9043 25.8199C21.9043 27.2157 23.0358 28.3473 24.4317 28.3473C25.8275 28.3473 26.9591 27.2157 26.9591 25.8199C26.9591 24.424 25.8275 23.2924 24.4317 23.2924Z" fill="#FF9797"/>
<path d="M23.6419 24.2402C23.8447 24.1539 24.1929 24.1176 24.1929 24.1176C24.3622 24.0754 24.5336 24.1784 24.5758 24.3477L24.5922 24.4132C24.6344 24.5825 24.5314 24.754 24.3621 24.7962C24.3621 24.7962 23.9578 24.8721 23.7998 25.03C23.6419 25.188 23.4839 25.346 23.4839 25.5039C23.4839 25.6619 22.704 25.5039 22.704 25.5039C22.704 25.5039 22.7679 25.206 22.8521 25.03C22.948 24.8294 23.0107 24.7134 23.168 24.5562C23.3253 24.3989 23.4373 24.3274 23.6419 24.2402Z" fill="#FF9797"/>
<path d="M23.4235 25.4493C23.4584 25.4511 23.4851 25.4809 23.4833 25.5157L23.4649 25.8678C23.4561 26.034 23.3008 26.1609 23.118 26.1513L23.005 26.1454C22.8221 26.1358 22.681 25.9933 22.6897 25.8272L22.7081 25.4751C22.7099 25.4402 22.7397 25.4135 22.7745 25.4153L23.4235 25.4493Z" fill="#FF9797"/>
<path d="M227.668 21.3511C229.871 19.1478 232.536 18.0461 235.664 18.0461C238.791 18.0461 241.456 19.1478 243.695 21.3511C245.898 23.5899 247 26.2552 247 29.3824C247 29.9866 246.929 30.5907 246.822 31.2659H228.343C228.77 32.9361 229.658 34.2866 231.008 35.3171C232.359 36.3832 233.922 36.9163 235.664 36.9163C237.689 36.9163 239.395 36.2055 240.852 34.8196L244.05 36.9874C241.741 39.475 238.969 40.7188 235.664 40.7188C232.536 40.7188 229.871 39.6171 227.668 37.3783C225.429 35.175 224.327 32.5097 224.327 29.3824C224.327 26.2552 225.429 23.5899 227.668 21.3511ZM228.343 27.499H242.984C242.558 25.8287 241.669 24.4783 240.319 23.4122C238.933 22.3461 237.405 21.8131 235.664 21.8131C233.922 21.8131 232.359 22.3461 231.008 23.4122C229.622 24.4783 228.734 25.8287 228.343 27.499Z" fill="black"/>
<path d="M208.878 18.0461H223.483L213.853 36.9163H223.057V40.7188H207.669L217.335 21.8131H208.878V18.0461Z" fill="black"/>
<path d="M193.81 49.7673H189.794L193.917 38.431L186.525 18.1394H190.541L195.942 32.9228L201.344 18.1394H205.36L193.81 49.7673Z" fill="black"/>
<path d="M175.946 33.2427V10.57H179.713V33.2427C179.713 35.3393 181.383 37.0451 183.48 37.0451H184.724V40.812H183.48C181.383 40.812 179.606 40.0658 178.149 38.5732C176.692 37.1162 175.946 35.3393 175.946 33.2427Z" fill="black"/>
<path d="M173.796 29.4757V40.812H170.029V37.898C167.897 39.8525 165.374 40.812 162.495 40.812C159.332 40.812 156.667 39.7104 154.464 37.4715C152.261 35.2682 151.159 32.603 151.159 29.4757C151.159 26.3485 152.261 23.6832 154.464 21.4443C156.667 19.2411 159.332 18.1394 162.495 18.1394C165.622 18.1394 168.288 19.2411 170.491 21.4443C172.694 23.6832 173.796 26.3485 173.796 29.4757ZM167.826 24.1096C166.369 22.6526 164.592 21.9063 162.495 21.9063C160.399 21.9063 158.622 22.6526 157.165 24.1096C155.672 25.5666 154.926 27.379 154.926 29.4757C154.926 31.5724 155.672 33.3492 157.165 34.8063C158.622 36.2633 160.399 37.0096 162.495 37.0096C164.592 37.0096 166.369 36.2633 167.826 34.8063C169.283 33.3492 170.029 31.5724 170.029 29.4757C170.029 27.379 169.283 25.6022 167.826 24.1096Z" fill="black"/>
<path d="M139.385 18.0461C141.979 18.0461 144.183 18.9701 146.03 20.818C147.878 22.6659 148.802 24.8692 148.802 27.4634V40.7188H145.035V27.4634C145.035 25.9354 144.467 24.5849 143.365 23.4833C142.264 22.3816 140.913 21.8131 139.385 21.8131C137.821 21.8131 136.507 22.3816 135.405 23.4833C134.303 24.5849 133.735 25.9354 133.735 27.4634V40.7188H129.932V27.4634C129.932 24.8692 130.856 22.6659 132.704 20.818C134.552 18.9701 136.791 18.0461 139.385 18.0461Z" fill="black"/>
<path d="M127.431 29.4757V40.812H123.664V37.898C121.532 39.8525 119.009 40.812 116.131 40.812C112.968 40.812 110.302 39.7104 108.099 37.4715C105.896 35.2682 104.794 32.603 104.794 29.4757C104.794 26.3485 105.896 23.6832 108.099 21.4443C110.302 19.2411 112.968 18.1394 116.131 18.1394C119.258 18.1394 121.923 19.2411 124.126 21.4443C126.33 23.6832 127.431 26.3485 127.431 29.4757ZM121.461 24.1096C120.004 22.6526 118.227 21.9063 116.131 21.9063C114.034 21.9063 112.257 22.6526 110.8 24.1096C109.307 25.5666 108.561 27.379 108.561 29.4757C108.561 31.5724 109.307 33.3492 110.8 34.8063C112.257 36.2633 114.034 37.0096 116.131 37.0096C118.227 37.0096 120.004 36.2633 121.461 34.8063C122.918 33.3492 123.664 31.5724 123.664 29.4757C123.664 27.379 122.918 25.6022 121.461 24.1096Z" fill="black"/>
<path d="M95.5213 18.1394C98.8618 18.1394 101.634 19.3832 103.872 21.8353L100.71 24.003C99.2527 22.6171 97.5469 21.9063 95.5213 21.9063C93.4246 21.9063 91.6477 22.6526 90.1907 24.1096C88.6982 25.5666 87.9519 27.379 87.9519 29.4757C87.9519 31.5724 88.6982 33.3492 90.1907 34.8063C91.6477 36.2633 93.4246 37.0096 95.5213 37.0096C97.5469 37.0096 99.2527 36.2988 100.71 34.9129L103.872 37.0806C101.634 39.5682 98.8262 40.812 95.5213 40.812C92.3585 40.812 89.6932 39.7104 87.4899 37.4715C85.2866 35.2682 84.185 32.603 84.185 29.4757C84.185 26.3485 85.2866 23.6832 87.4899 21.4443C89.6932 19.2411 92.3585 18.1394 95.5213 18.1394Z" fill="black"/>
<path d="M71.4805 20.5204L77.6284 23.932C80.3292 25.5311 82.0705 28.5873 82.0705 31.7146C82.0705 34.2377 81.1821 36.3699 79.4052 38.1468C77.6284 39.9236 75.4962 40.812 72.973 40.812C70.7342 40.812 68.7441 40.0658 67.0383 38.5732C65.3326 37.0807 64.3375 35.2327 64.0177 33.0294L67.678 31.7501C67.7135 33.2071 68.2466 34.4509 69.2772 35.4815C70.3078 36.5121 71.516 37.0096 72.973 37.0096C74.43 37.0096 75.7094 36.4765 76.74 35.446C77.7705 34.4154 78.268 33.1716 78.268 31.7146C78.268 29.7245 77.2019 27.9476 75.4962 27.0592L69.135 23.5055C67.1805 22.2262 65.9367 20.0584 65.9367 17.6419C65.9367 15.6874 66.6119 14.0171 67.9978 12.6312C69.3838 11.2452 71.0185 10.57 72.973 10.57C74.5722 10.57 75.9937 11.0676 77.273 12.0271C78.5168 12.9866 79.3697 14.2304 79.7606 15.7229L76.1714 16.9312C75.8515 15.4742 74.5367 14.3725 72.973 14.3725C71.1606 14.3725 69.7036 15.8295 69.7036 17.6419C69.7036 18.9568 70.3078 19.9163 71.4805 20.5204Z" fill="black"/>
</svg>
